# xmcd
#
# Track frame offsets: 
#        150
#        10642
#        21820
#        28115
#        38126
#        47044
#        56347
#        68570
#        78312
#        89443
#        97551
#        107951
#
# Disc length: 1578 seconds
#
# Revision: 0
# Processed by: cddbd v1.5.2PL0 Copyright (c) Steve Scherf et al.
# Submitted via: ExactAudioCopy v0.99pb4
#
DISCID=8306280c
DTITLE=Johnny Cash - Greatest!
DYEAR=1958
DGENRE=Country
TTITLE0=Goodbye Little Darlin'
TTITLE1=I Just Thought You'd Like to Know
TTITLE2=You Tell Me
TTITLE3=It's Just About Time
TTITLE4=I Forgot to Remember to Forget
TTITLE5=Katy Too
TTITLE6=Thanks a Lot
TTITLE7=Luther Played the Boogie
TTITLE8=You Win Again
TTITLE9=Hey Good Lookin'
TTITLE10=I Could Never Be Ashamed of You
TTITLE11=Get Rhythm
EXTD=
EXTT0=
EXTT1=
EXTT2=
EXTT3=
EXTT4=
EXTT5=
EXTT6=
EXTT7=
EXTT8=
EXTT9=
EXTT10=
EXTT11=
PLAYORDER=
